HIERARCHY
ROOT Hips
{
  OFFSET 0 97.0425 0
  CHANNELS 6 Xposition Yposition Zposition Zrotation Xrotation Yrotation
  JOINT Spine
  {
    OFFSET 0 4.48767 6.73151
    CHANNELS 3 Zrotation Xrotation Yrotation
    JOINT Spine1
    {
      OFFSET 0 0 8.97534
      CHANNELS 3 Zrotation Xrotation Yrotation
      JOINT Spine2
      {
        OFFSET 0 0 8.97534
        CHANNELS 3 Zrotation Xrotation Yrotation
        JOINT Spine3
        {
          OFFSET 0 0 8.97534
          CHANNELS 3 Zrotation Xrotation Yrotation
          JOINT Neck
          {
            OFFSET 0 -3.36575 23.5603
            CHANNELS 3 Zrotation Xrotation Yrotation
            JOINT Head
            {
              OFFSET 0 0 12.3411
              CHANNELS 3 Zrotation Xrotation Yrotation
              JOINT HeadEnd
              {
                OFFSET 0 0 14.5288
                CHANNELS 3 Zrotation Xrotation Yrotation
                End Site
                {
                  OFFSET 0 0 0
                }
              }
            }
          }
          JOINT RightShoulder
          {
            OFFSET -3.07483 -5.12471 16.6041
            CHANNELS 3 Zrotation Xrotation Yrotation
            JOINT RightArm
            {
              OFFSET 15.2716 0 0
              CHANNELS 3 Zrotation Xrotation Yrotation
              JOINT RightForeArm
              {
                OFFSET 29.7895 0 0
                CHANNELS 3 Zrotation Xrotation Yrotation
                JOINT RightForeArmRoll
                {
                  OFFSET 12.2977 0 0
                  CHANNELS 3 Zrotation Xrotation Yrotation
                  JOINT RightHand
                  {
                    OFFSET 12.7101 0 0
                    CHANNELS 3 Zrotation Xrotation Yrotation
                    JOINT RightHandEnd
                    {
                      OFFSET 7.20568 0 0
                      CHANNELS 3 Zrotation Xrotation Yrotation
                      JOINT R_FingersEnd
                      {
                        OFFSET 7.20568 0 0
                        CHANNELS 3 Zrotation Xrotation Yrotation
                        End Site
                        {
                          OFFSET 0 0 0
                        }
                      }
                    }
                    JOINT RightHandThumb1
                    {
                      OFFSET 2.88227 -4.80378 1.92151
                      CHANNELS 3 Zrotation Xrotation Yrotation
                      JOINT RightHandThumb2
                      {
                        OFFSET 7.20568 0 0
                        CHANNELS 3 Zrotation Xrotation Yrotation
                        End Site
                        {
                          OFFSET 0 0 0
                        }
                      }
                    }
                  }
                }
              }
            }
          }
          JOINT LeftShoulder
          {
            OFFSET 3.07483 -5.12471 16.6041
            CHANNELS 3 Zrotation Xrotation Yrotation
            JOINT LeftArm
            {
              OFFSET 15.2716 0 0
              CHANNELS 3 Zrotation Xrotation Yrotation
              JOINT LeftForeArm
              {
                OFFSET 29.7895 0 0
                CHANNELS 3 Zrotation Xrotation Yrotation
                JOINT LeftForeArmRoll
                {
                  OFFSET 12.2977 0 0
                  CHANNELS 3 Zrotation Xrotation Yrotation
                  JOINT LeftHand
                  {
                    OFFSET 12.7101 0 0
                    CHANNELS 3 Zrotation Xrotation Yrotation
                    JOINT LeftHandEnd
                    {
                      OFFSET 7.20568 0 0
                      CHANNELS 3 Zrotation Xrotation Yrotation
                      JOINT L_FingersEnd
                      {
                        OFFSET 7.20568 0 0
                        CHANNELS 3 Zrotation Xrotation Yrotation
                        End Site
                        {
                          OFFSET 0 0 0
                        }
                      }
                    }
                    JOINT LeftHandThumb1
                    {
                      OFFSET 2.88227 -4.80378 -1.92151
                      CHANNELS 3 Zrotation Xrotation Yrotation
                      JOINT LeftHandThumb2
                      {
                        OFFSET 7.20568 0 0
                        CHANNELS 3 Zrotation Xrotation Yrotation
                        End Site
                        {
                          OFFSET 0 0 0
                        }
                      }
                    }
                  }
                }
              }
            }
          }
        }
      }
    }
  }
  JOINT RightUpLeg
  {
    OFFSET -9.12199 0 -2.66485
    CHANNELS 3 Zrotation Xrotation Yrotation
    JOINT RightLeg
    {
      OFFSET 40.2882 0 0
      CHANNELS 3 Zrotation Xrotation Yrotation
      JOINT RightFoot
      {
        OFFSET 43.5978 0 0
        CHANNELS 3 Zrotation Xrotation Yrotation
        JOINT RightToeBase
        {
          OFFSET 18.3185 0 0
          CHANNELS 3 Zrotation Xrotation Yrotation
          JOINT RightToeBaseEnd
          {
            OFFSET 7.37959 0 0
            CHANNELS 3 Zrotation Xrotation Yrotation
            End Site
            {
              OFFSET 0 0 0
            }
          }
        }
      }
    }
  }
  JOINT LeftUpLeg
  {
    OFFSET 9.12199 0 -2.66485
    CHANNELS 3 Zrotation Xrotation Yrotation
    JOINT LeftLeg
    {
      OFFSET 40.2882 0 0
      CHANNELS 3 Zrotation Xrotation Yrotation
      JOINT LeftFoot
      {
        OFFSET 43.5978 0 0
        CHANNELS 3 Zrotation Xrotation Yrotation
        JOINT LeftToeBase
        {
          OFFSET 18.3185 0 0
          CHANNELS 3 Zrotation Xrotation Yrotation
          JOINT LeftToeBaseEnd
          {
            OFFSET 7.37959 0 0
            CHANNELS 3 Zrotation Xrotation Yrotation
            End Site
            {
              OFFSET 0 0 0
            }
          }
        }
      }
    }
  }
}
MOTION
Frames:	9
Frame Time:	0.0416667
0 97.0425 0 -0 -90 -0 -0 -10 -0 0.00151823 5 -0.000132323 -1.92003e-019 5 -2.43584e-020 9.46851e-047 2.88138e-025 -1.8828e-020 -1.99363e-019 10 3.01617e-020 -3.96809e-019 -10 -4.92801e-020 -9.17193e-046 1.7692e-024 2.97035e-020 -7.01671e-015 7.01671e-015 180 3.88251e-019 8.24073e-025 -1.50409e-020 3.88251e-019 -1.60879e-015 9.22482e-021 1.94126e-019 2.67815e-025 -2.12662e-020 1.94126e-019 1.74888e-024 -4.55319e-020 -0 -90 6.81129e-015 2.3314e-020 -1.74385e-024 -3.88251e-019 165 10 -180 1.59028e-015 -3.18055e-015 -3.97569e-016 -1.94126e-019 2.88137e-025 2.97035e-020 -3.88251e-019 1.02867e-024 5.43776e-021 -3.88251e-019 -7.95139e-016 2.48511e-016 -1.94126e-019 1.49427e-024 8.79361e-021 -1.94126e-019 7.53735e-025 -1.54721e-020 -0 90 -1.94126e-019 -4.66232e-020 1.46218e-025 -0 165 10 180 -3.18055e-015 1.59028e-015 -0 0 -0 90 -0 0 1.31542e-047 -70 -2.30843e-015 3.29677e-015 -20 9.52494e-018 -2.16298e-015 -1.85049e-063 -6.86308e-031 -1.54487e-031 0 -0 90 -0 0 1.31542e-047 -70 -2.30843e-015 3.29677e-015 -20 9.52494e-018 -2.16298e-015 -1.85049e-063 -6.86308e-031 -1.54487e-031 
-0.538055 97.0591 -2.07448 -82.0826 -89.7689 -82.4098 0.0689602 -10.271 0.337979 0.00596609 4.31222 0.0619179 0.33194 6.67436 0.53038 -0.0802184 0.177951 -0.379599 -0.188473 8.85944 -0.0295266 -1.07598 -10.9825 -0.394171 2.15523e-035 -1.98785e-016 6.21202e-018 -0.398122 4.50398 174.317 -17.9754 -8.99767 -68.2474 -29.9982 -6.36111e-015 -7.95139e-015 0 4.44677 -0 -2.96275 0.0075547 7.64303 -0 -90 -3.89506e-031 7.95139e-016 3.18055e-015 -0 165 10 180 -3.18055e-015 1.59028e-015 6.36111e-015 2.37162 5.36769 5.61831 -34.0849 3.74772 67.7914 -18.5584 6.36111e-015 1.59028e-015 -1.73122e-015 -5.06471 -1.59651e-015 0.497588 0.00336633 -20.5941 -0 90 -9.54166e-015 -4.77083e-015 3.18055e-015 -6.36111e-015 165 10 180 1.27222e-014 3.18055e-015 4.77083e-015 -9.71376 -0.792191 94.3916 14.4182 0 1.59028e-015 -84.3749 4.03726 -2.69832 -19.1023 -1.86361e-017 1.59028e-015 4.96962e-017 -1.55301e-017 3.18055e-015 -1.57701 1.86403 85.4489 10.1008 1.19271e-015 -9.93923e-017 -82.3174 -7.8036 -1.47973 -19.2502 4.28629e-016 1.19271e-015 0 2.48481e-017 -0 
-0.547579 97.0664 -2.02956 -61.2629 -89.7004 -61.6194 0.0791183 -10.2804 0.365202 0.00601147 4.28857 0.0391679 0.444377 6.70506 0.60383 -0.0792154 0.175087 -0.408431 -0.181434 8.75851 -0.0589791 -1.2365 -11.0031 -0.38915 -1.98785e-016 0 -6.21202e-018 -0.41087 4.78324 173.91 -19.9304 -8.49243 -73.5197 -32.2402 6.36111e-015 1.59028e-015 1.36995e-016 4.9236 -1.59617e-015 -3.28706 -0.00813725 8.25454 -0 -90 -6.36111e-015 0 0 -6.36111e-015 165 10 180 -3.18055e-015 1.59028e-015 -0 2.5305 5.80335 6.07172 -40.9753 -0.0666898 69.9958 -19.9214 6.36111e-015 -4.77083e-015 3.18055e-015 -4.92934 -0 0.859375 -0.00589271 -21.9822 -0 90 3.18055e-015 3.53113e-031 3.18055e-015 -6.36111e-015 165 10 -180 3.18055e-015 -3.18055e-015 -1.59028e-015 -10.4105 -0.899171 94.7229 15.5826 6.36111e-015 4.37326e-015 -85.4809 4.4803 -2.84958 -19.0223 1.86361e-017 -1.59028e-015 7.45443e-017 -1.80149e-016 -0 -1.72193 1.90729 85.1082 10.8753 7.95139e-016 -1.49089e-015 -83.2701 -8.35256 -1.68233 -19.1945 -4.93856e-016 7.95139e-016 -2.02591e-033 2.91965e-016 3.97569e-016 
-0.505058 97.0583 -1.9495 -51.157 -89.6215 -51.5684 0.0800174 -10.2846 0.377741 0.00609846 4.29683 0.0382529 0.446814 6.6578 0.56911 -0.0666883 0.173268 -0.385449 -0.144405 8.78386 0.10025 -1.12704 -11.0202 -0.446223 3.97569e-016 3.97569e-016 -0 -0.407354 4.62839 174.16 -19.0403 -8.80899 -70.9762 -31.0852 -3.18055e-015 -6.36111e-015 1.26301e-016 4.54094 -1.59528e-015 -3.07779 0.000218043 8.12021 -0 -90 9.54166e-015 -4.77083e-015 -4.77083e-015 -6.36111e-015 165 10 -180 6.36111e-015 1.59028e-015 -3.18055e-015 2.52177 5.40492 5.93331 -37.9744 1.62542 69.0333 -19.1902 -6.36111e-015 3.18055e-015 -6.06707e-015 -5.28194 3.19412e-015 0.543379 5.67199e-005 -21.5306 -0 90 1.94753e-031 -1.59028e-015 3.18055e-015 -3.18055e-015 165 10 -180 -1.32417e-031 -4.77083e-015 -1.59028e-015 -10.0592 -0.977778 94.6609 15.0402 1.59028e-015 1.19271e-015 -84.9542 4.28731 -2.91937 -19.0927 -4.50372e-016 -4.77083e-015 4.96962e-017 -3.41661e-017 -0 -1.66363 1.78973 85.3793 10.4809 2.38542e-015 -0 -82.8025 -8.06249 -1.65763 -19.1721 -9.97029e-016 -1.19271e-015 9.93923e-017 2.11209e-016 3.97569e-016 
-0.615874 97.042 -2.06211 -17.9194 -89.3682 -18.1734 0.0845977 -10.2956 0.444778 0.000649882 4.28791 0.0446157 0.368559 6.46776 0.407652 -0.0509409 0.145791 -0.419314 -0.135372 8.71968 0.132641 -1.03354 -11.0343 -0.440719 -0 0 1.86361e-017 -0.376379 4.56754 174.094 -18.9312 -8.73215 -70.9238 -31.1975 0 -3.18055e-015 0 4.75326 -0 -3.16572 0 8.00707 -0 -90 4.86882e-032 2.64834e-031 -4.77083e-015 3.18055e-015 165 10 180 -6.36111e-015 -1.59028e-015 3.18055e-015 2.4992 5.47532 6.03635 -37.9438 1.44686 68.8285 -19.2454 9.54166e-015 -6.36111e-015 1.6263e-016 -5.83907 1.59857e-015 0.30485 -3.18055e-015 -21.2836 -0 90 6.36111e-015 4.77083e-015 0 -3.18055e-015 165 10 -180 -3.18055e-015 6.36111e-015 6.36111e-015 -9.58082 -1.354 94.287 15.1149 3.18055e-015 2.38542e-015 -84.9756 4.32723 -2.31939 -19.0947 1.52505e-015 6.36111e-015 3.96562e-033 -7.14382e-017 3.18055e-015 -1.15094 1.01641 85.0396 11.0168 0 1.2424e-015 -82.8746 -8.10334 -0.963576 -19.1482 -1.27346e-016 -3.18055e-015 -9.93923e-017 -1.02498e-016 -0 
-0.60335 97.052 -2.02499 -12.3086 -89.2997 -12.5399 0.0818095 -10.2736 0.42543 0.0039872 4.32935 0.0534746 0.363848 6.38589 0.386748 -0.0348404 0.12529 -0.425651 -0.186835 8.7754 0.165952 -1.06498 -11.0562 -0.429443 1.98785e-016 3.97569e-016 -7.45443e-017 -0.463345 4.53625 174.087 -18.9858 -8.72716 -70.8523 -31.1817 3.18055e-015 3.18055e-015 6.48772e-015 4.55218 -1.59531e-015 -3.25658 1.70554e-005 8.11215 -0 -90 -1.59028e-014 -0 -1.59028e-015 -0 165 10 180 -3.08973e-031 1.11319e-014 1.59028e-015 2.38844 5.40694 6.0874 -37.9032 1.51009 68.8712 -19.2737 3.18055e-015 -3.18055e-015 3.8582e-016 -4.62348 4.78641e-015 0.955372 -4.15131e-005 -20.9948 -0 90 -6.36111e-015 6.36111e-015 3.18055e-015 -6.36111e-015 165 10 -180 3.18055e-015 1.59028e-015 3.18055e-015 -9.59353 -1.40144 94.2341 15.1193 0 3.97569e-016 -84.9565 4.37062 -2.18402 -19.0222 -1.11816e-015 6.36111e-015 -9.93923e-017 2.54693e-016 -0 -1.00679 0.892275 85.0009 11.0849 -9.93923e-016 -1.2424e-015 -82.8458 -8.05364 -0.768876 -19.1521 6.1499e-016 1.59028e-015 -9.93923e-017 1.98785e-016 3.97569e-016 
-0.571416 97.0483 -1.99732 -8.65157 -89.2214 -8.92006 0.075622 -10.2971 0.412036 -0.00285767 4.29058 0.0306518 0.330476 6.44054 0.443981 -0.0783341 0.141088 -0.401055 -0.106087 8.73982 0.185542 -1.04139 -11.0472 -0.441196 8.62091e-035 1.98785e-016 -2.48481e-017 -0.410232 4.51561 174.076 -18.9062 -8.60692 -70.7919 -31.2555 0 -0 0 4.57208 -0 -3.11339 2.78371e-005 8.00027 -0 -90 3.18055e-015 7.95139e-016 -3.18055e-015 -0 165 10 -180 -3.53113e-031 3.18055e-015 6.36111e-015 2.47071 5.43941 6.13197 -38.1715 1.53636 68.775 -19.2644 -3.18055e-015 -3.18055e-015 3.42426e-015 -4.38169 3.18988e-015 1.11018 1.4524e-005 -21.2852 -0 90 -3.18055e-015 -1.59028e-015 -3.18055e-015 -0 165 10 180 6.36111e-015 0 7.95139e-015 -9.55185 -1.45421 94.2743 15.0894 3.18055e-015 7.95139e-016 -84.9412 4.41543 -2.11113 -19.2865 -9.3258e-016 6.36111e-015 2.79541e-017 1.5763e-016 -1.59028e-015 -0.906562 0.789433 85.047 11.1122 1.39149e-015 1.59028e-015 -82.814 -8.01682 -0.650116 -19.1287 -1.0871e-015 3.97569e-016 9.93923e-017 -7.01958e-016 -3.97569e-016 
-0.546332 97.0521 -1.94882 -6.71437 -89.1987 -7.00215 0.0773165 -10.284 0.412949 -0.0033486 4.30933 0.0266827 0.316184 6.43452 0.456443 -0.0799777 0.136496 -0.401644 -0.119604 8.7739 0.152947 -1.02008 -11.054 -0.379902 -3.23284e-035 9.93923e-017 1.86361e-017 -0.396611 4.48704 174.086 -18.8416 -8.55267 -70.7998 -31.2779 -6.36111e-015 -3.18055e-015 -3.05547e-015 4.49725 -1.59519e-015 -3.10579 -6.572e-006 7.9271 -0 -90 -0 -2.38542e-015 0 -3.18055e-015 165 10 -180 9.54166e-015 1.59028e-015 6.36111e-015 2.48961 5.43352 6.16688 -38.1519 1.48455 68.7642 -19.2541 -6.36111e-015 3.18055e-015 -3.3144e-015 -4.81103 -1.5959e-015 0.912394 6.71184e-005 -21.2978 -0 90 6.36111e-015 -4.77083e-015 3.18055e-015 -9.54166e-015 165 10 -180 -1.76556e-031 3.18055e-015 3.18055e-015 -9.50005 -1.42625 94.3012 15.0438 1.59028e-015 -0 -84.9491 4.43352 -2.03088 -19.2693 6.04119e-016 -4.77083e-015 -2.48481e-017 -1.95679e-016 1.59028e-015 -0.904599 0.809742 85.0807 11.0634 7.95139e-016 -1.09332e-015 -82.778 -8.01301 -0.628449 -19.0793 6.39838e-016 1.98785e-015 -9.93923e-017 2.17421e-016 3.97569e-016 
-0.5243 97.0588 -1.9324 -3.83504 -89.1355 -4.15205 0.0799834 -10.2764 0.426918 -0.00353571 4.33113 0.0214819 0.327468 6.40915 0.479012 -0.0870105 0.127369 -0.399893 -0.102851 8.7394 0.122361 -1.02641 -11.0127 -0.392851 1.02373e-034 1.98785e-016 -2.95071e-017 -0.415202 4.43376 174.068 -18.8873 -8.54397 -70.8235 -31.2428 0 -1.59028e-015 1.29995e-016 4.67318 -1.59558e-015 -3.16659 -3.18055e-015 7.9491 -0 -90 3.18055e-015 7.95139e-016 -1.59028e-015 9.54166e-015 165 10 180 -3.18055e-015 7.95139e-015 3.18055e-015 2.4824 5.37335 6.10084 -37.9426 1.35639 68.8419 -19.2785 -3.18055e-015 1.59028e-015 2.88176e-015 -5.36686 -3.19456e-015 0.617558 3.18055e-015 -21.0864 -0 90 6.36111e-015 -6.36111e-015 3.18055e-015 -9.54166e-015 165 10 180 -6.36111e-015 1.59028e-015 -1.59028e-015 -9.42838 -1.44408 94.3452 14.9495 -1.59028e-015 -3.97569e-015 -84.9139 4.43676 -2.021 -19.3107 -1.59785e-015 3.18055e-015 -2.17421e-017 -3.08854e-016 -0 -0.90393 0.721118 85.1218 11.0973 7.95139e-016 -1.93815e-015 -82.7284 -7.98272 -0.595279 -19.1055 -2.81715e-015 -2.78299e-015 -9.93923e-017 3.88251e-016 -3.97569e-016 
